<svg xmlns="http://www.w3.org/2000/svg" width="39" height="40" viewBox="0 0 39 40">
    <g fill="none" fill-rule="evenodd">
        <g fill="#326FE3" fill-rule="nonzero">
            <g>
                <path d="M28.015 29.664l2.119 3.161c-4.021 2.66-7.162 3.77-10.908 3.77-3.082 0-5.947-.774-8.594-2.328-5.343-3.108-8.648-8.763-8.648-14.974 0-3.108.775-5.992 2.313-8.704 3.082-5.324 8.76-8.65 14.93-8.65 4.35 0 8.482 1.606 11.623 4.55l.329.277.44.443L33 5.767l-.77-.774C28.703 1.832 24.077 0 19.227 0c-3.47 0-6.663.833-9.586 2.553C3.798 5.933 0 12.42 0 19.299c0 3.38.88 6.6 2.642 9.59 3.47 5.992 9.698 9.762 16.584 9.762 4.35 0 7.99-1.388 12.892-4.768l.77-.497-3.147-4.768-1.726 1.046z" transform="translate(-218.000000, -21.000000) translate(218.140896, 21.023636)"/>
                <path d="M29.694 7.765c-.388-.39-.88-.721-1.486-1.111-2.588-1.998-5.618-2.996-8.982-2.996-4.133 0-7.93 1.607-10.96 4.55-2.918 3.108-4.573 6.931-4.573 11.091 0 4.16 1.65 8.096 4.573 11.032 2.923 2.937 6.833 4.604 10.96 4.604 2.977 0 5.73-.834 8.32-2.494l-1.105-1.666c-2.26 1.495-4.626 2.215-7.22 2.215-3.582 0-6.998-1.441-9.587-4.047-2.59-2.606-3.963-6.045-3.963-9.65 0-3.604 1.38-6.984 3.963-9.596 2.589-2.66 6.005-4.048 9.586-4.048 2.701 0 5.29.833 7.879 2.553l.44.39 1.485 1.282 1.269-1.507-.6-.602z" transform="translate(-218.000000, -21.000000) translate(218.140896, 21.023636)"/>
                <path d="M30.986 21.152l2.855 5.496h2.639l-2.547-4.967.755-.307 3.171 6.132h-4.527l-2.854-5.538c.137-.146.257-.31.358-.494.058-.105.108-.212.15-.322zm-1.603 1.465v4.889h-4.001v-4.819h.83v3.96h2.318v-3.96h.286c.195 0 .385-.023.567-.07zm1.636-11.744c2.645 0 4.528.906 5.444 2.593.389.781.595 1.663.595 2.64 0 2.924-1.471 4.658-4.23 5.155l2.507 4.824h-.944l-2.874-5.487.618-.07c2.599-.285 4.093-1.853 4.093-4.422 0-2.83-1.883-4.374-5.214-4.374h-3.24v1.954l-.223-.392c-.159-.279-.363-.516-.6-.703l-.001-1.718h4.07zm-3.246 11.814l.001 3.369h-.824v-3.369h.823zm3.63-10.162c2.507 0 4.07 1.332 4.07 3.681 0 2.398-1.41 3.522-4.375 3.585-.05-.252-.141-.499-.273-.732l-.05-.089h.05c2.598 0 3.812-.881 3.812-2.758 0-1.805-1.197-2.829-3.24-2.829h-2.043v.805h1.797c1.196 0 1.975.284 2.364.882.206.26.297.592.297 1.024 0 1.355-1.081 2.09-3.125 2.09l-.36-.002-.484-.852.85.001c1.54 0 2.295-.402 2.295-1.237 0-.71-.618-1.071-1.837-1.071h-2.619l-.026-.047v-2.451h2.897zm-2.044 3.332v.621l-.353-.622.353.001zm-3.148-4.984v1.33c-.213-.064-.438-.098-.67-.098-.053 0-.107.001-.16.005v-1.237h.83z" transform="translate(-218.000000, -21.000000) translate(218.140896, 21.023636)"/>
                <path d="M29.73 19.386l-3.373-5.567c-.525-.869-1.828-.869-2.353 0l-2.801 4.63-.991 1.635h-1.569l-.419-.698-3.373-5.567c-.525-.869-1.828-.869-2.353 0l-3.374 5.567c-.536.88.124 1.995 1.18 1.995h4.73l3.361 5.55c.466.766 1.605.766 2.07 0l3.362-5.55h4.73c1.05 0 1.704-1.109 1.174-1.995z" transform="translate(-218.000000, -21.000000) translate(218.140896, 21.023636)"/>
            </g>
        </g>
    </g>
</svg>
